<svg width="48" height="48" viewBox="0 0 48 48" fill="none" xmlns="http://www.w3.org/2000/svg">
<rect width="48" height="48" rx="24" fill="#A80D0F"/>
<path d="M31.8282 18.4117C31.7197 18.3024 31.5907 18.2156 31.4485 18.1564C31.3064 18.0971 31.1539 18.0667 30.9999 18.0667C30.8458 18.0667 30.6934 18.0971 30.5512 18.1564C30.409 18.2156 30.28 18.3024 30.1715 18.4117L21.4799 27.1151L17.8282 23.4517C17.7156 23.343 17.5827 23.2574 17.437 23.2C17.2913 23.1426 17.1358 23.1145 16.9792 23.1172C16.8227 23.1199 16.6682 23.1534 16.5246 23.2158C16.381 23.2782 16.2511 23.3683 16.1424 23.4809C16.0336 23.5935 15.948 23.7265 15.8906 23.8721C15.8332 24.0178 15.8051 24.1733 15.8078 24.3299C15.8105 24.4864 15.844 24.6409 15.9064 24.7845C15.9688 24.9281 16.0589 25.058 16.1715 25.1667L20.6515 29.6467C20.76 29.7561 20.889 29.8429 21.0312 29.9021C21.1734 29.9614 21.3258 29.9918 21.4799 29.9918C21.6339 29.9918 21.7864 29.9614 21.9285 29.9021C22.0707 29.8429 22.1997 29.7561 22.3082 29.6467L31.8282 20.1267C31.9466 20.0175 32.0411 19.8849 32.1058 19.7373C32.1704 19.5897 32.2038 19.4304 32.2038 19.2692C32.2038 19.1081 32.1704 18.9488 32.1058 18.8012C32.0411 18.6536 31.9466 18.521 31.8282 18.4117Z" fill="white"/>
</svg>
