<svg width="38" height="38" viewBox="0 0 38 38" fill="none" xmlns="http://www.w3.org/2000/svg">
<circle cx="19" cy="19" r="19" transform="rotate(-180 19 19)" fill="#A80D0F"/>
<path d="M22.3015 18.1716L17.3548 13.225C17.2464 13.1156 17.1173 13.0288 16.9752 12.9696C16.833 12.9104 16.6805 12.8799 16.5265 12.8799C16.3725 12.8799 16.22 12.9104 16.0778 12.9696C15.9356 13.0288 15.8066 13.1156 15.6981 13.225C15.4809 13.4436 15.3589 13.7393 15.3589 14.0475C15.3589 14.3557 15.4809 14.6514 15.6981 14.87L19.8281 19L15.6981 23.13C15.4809 23.3486 15.3589 23.6443 15.3589 23.9525C15.3589 24.2607 15.4809 24.5564 15.6981 24.775C15.8072 24.8831 15.9364 24.9687 16.0786 25.0267C16.2207 25.0848 16.3729 25.1142 16.5265 25.1133C16.68 25.1142 16.8322 25.0848 16.9744 25.0267C17.1165 24.9687 17.2458 24.8831 17.3548 24.775L22.3015 19.8283C22.4108 19.7199 22.4976 19.5908 22.5569 19.4487C22.6161 19.3065 22.6466 19.154 22.6466 19C22.6466 18.846 22.6161 18.6935 22.5569 18.5513C22.4976 18.4091 22.4108 18.2801 22.3015 18.1716Z" fill="white"/>
</svg>
