<svg width="38" height="38" viewBox="0 0 38 38" fill="none" xmlns="http://www.w3.org/2000/svg">
<circle cx="19" cy="19" r="19" fill="#A80D0F"/>
<path d="M15.8055 14.4099C15.6584 14.3885 15.5083 14.4181 15.3804 14.4938H15.3693C15.0724 14.668 14.8048 14.8873 14.5768 15.1454C14.3868 15.3647 14.2839 15.5863 14.257 15.8001C14.2412 15.9267 14.2523 16.055 14.2895 16.1761L14.3037 16.184C14.5175 16.8118 14.7961 17.4159 15.1365 17.9843C15.5755 18.7827 16.1156 19.5211 16.7436 20.1812L16.7626 20.2081L16.7927 20.2302L16.8109 20.2516L16.8331 20.2706C17.4955 20.9005 18.2356 21.4432 19.0355 21.8856C19.9499 22.3836 20.5048 22.6187 20.8381 22.7169V22.7216C20.9355 22.7517 21.0242 22.7652 21.1136 22.7652C21.3975 22.7442 21.6661 22.6288 21.8768 22.4374C22.1341 22.2094 22.3518 21.941 22.5212 21.6426V21.637C22.6803 21.3362 22.6265 21.0528 22.3969 20.8604C21.9358 20.4575 21.4371 20.0996 20.9078 19.7917C20.5531 19.5993 20.1929 19.7157 20.0473 19.9104L19.7361 20.3031C19.5762 20.4978 19.2865 20.4709 19.2865 20.4709L19.2785 20.4757C17.1165 19.9239 16.5394 17.7349 16.5394 17.7349C16.5394 17.7349 16.5125 17.4372 16.7128 17.2852L17.1023 16.9717C17.2891 16.8197 17.4189 16.4603 17.2186 16.1057C16.9127 15.5758 16.5556 15.0773 16.1523 14.6173C16.0643 14.5091 15.9409 14.4353 15.8039 14.4091L15.8055 14.4099ZM19.459 13.4583C19.3541 13.4583 19.2534 13.5 19.1792 13.5743C19.1049 13.6485 19.0632 13.7492 19.0632 13.8542C19.0632 13.9591 19.1049 14.0598 19.1792 14.1341C19.2534 14.2083 19.3541 14.25 19.459 14.25C20.4597 14.25 21.291 14.577 21.9488 15.204C22.2869 15.5467 22.5505 15.9529 22.7231 16.3978C22.8965 16.8435 22.9756 17.3193 22.955 17.7959C22.9506 17.9009 22.9881 18.0033 23.0592 18.0806C23.1303 18.158 23.2293 18.2039 23.3343 18.2083C23.4392 18.2127 23.5417 18.1753 23.619 18.1041C23.6964 18.033 23.7423 17.9341 23.7467 17.8291C23.7713 17.2429 23.674 16.6579 23.4609 16.1112C23.247 15.5619 22.9225 15.0623 22.5078 14.6435L22.4998 14.6355C21.6836 13.8557 20.6513 13.4583 19.459 13.4583Z" fill="white"/>
<path d="M19.4315 14.7598C19.3265 14.7598 19.2258 14.8015 19.1516 14.8758C19.0773 14.95 19.0356 15.0507 19.0356 15.1557C19.0356 15.2607 19.0773 15.3613 19.1516 15.4356C19.2258 15.5098 19.3265 15.5515 19.4315 15.5515H19.4449C20.1669 15.603 20.6926 15.8436 21.0607 16.2387C21.4384 16.6456 21.6339 17.1515 21.6189 17.7769C21.6164 17.8819 21.6558 17.9835 21.7284 18.0594C21.8009 18.1354 21.9006 18.1794 22.0056 18.1818C22.1106 18.1842 22.2122 18.1448 22.2881 18.0723C22.3641 17.9998 22.4081 17.9001 22.4105 17.7951C22.4295 16.9741 22.1651 16.2656 21.641 15.7003V15.6988C21.1051 15.124 20.3696 14.82 19.4845 14.7606L19.4711 14.759L19.4315 14.7598Z" fill="white"/>
<path d="M19.4165 16.0859C19.3635 16.0812 19.3101 16.0873 19.2595 16.1037C19.209 16.1201 19.1622 16.1465 19.122 16.1814C19.0819 16.2163 19.0492 16.2589 19.0259 16.3067C19.0026 16.3545 18.9891 16.4065 18.9864 16.4596C18.9836 16.5127 18.9916 16.5658 19.0098 16.6158C19.028 16.6657 19.0561 16.7115 19.0924 16.7504C19.1287 16.7892 19.1725 16.8204 19.2211 16.842C19.2697 16.8635 19.3221 16.8751 19.3753 16.876C19.7062 16.8934 19.9176 16.9931 20.0506 17.1269C20.1844 17.2615 20.2841 17.4776 20.3023 17.8157C20.3033 17.8688 20.315 17.9212 20.3367 17.9697C20.3583 18.0182 20.3895 18.0619 20.4284 18.0981C20.4673 18.1343 20.5131 18.1623 20.563 18.1804C20.613 18.1985 20.666 18.2064 20.7191 18.2036C20.7722 18.2008 20.8241 18.1873 20.8718 18.164C20.9196 18.1407 20.9621 18.108 20.997 18.0679C21.0318 18.0277 21.0582 17.981 21.0746 17.9305C21.091 17.88 21.0971 17.8266 21.0924 17.7737C21.0671 17.2987 20.9183 16.8791 20.6135 16.5704C20.3071 16.2616 19.8899 16.1112 19.4165 16.0859Z" fill="white"/>
<path fill-rule="evenodd" clip-rule="evenodd" d="M15.0946 11.3873C17.6137 10.8242 20.2261 10.8242 22.7452 11.3873L23.0136 11.4467C23.75 11.6113 24.4264 11.9769 24.9675 12.5028C25.5086 13.0287 25.8933 13.6943 26.0789 14.4257C26.7184 16.9455 26.7184 19.5851 26.0789 22.1049C25.8933 22.8363 25.5086 23.5019 24.9675 24.0278C24.4264 24.5538 23.75 24.9193 23.0136 25.084L22.7444 25.1433C21.1667 25.4962 19.5477 25.6291 17.9335 25.5384L15.8332 27.4178C15.754 27.4887 15.6572 27.537 15.553 27.5578C15.4488 27.5785 15.3409 27.5709 15.2406 27.5357C15.1403 27.5005 15.0513 27.4391 14.9828 27.3577C14.9144 27.2764 14.8691 27.1782 14.8515 27.0734L14.504 24.9977C13.8375 24.7903 13.2354 24.4155 12.7552 23.909C12.2749 23.4026 11.9326 22.7814 11.7608 22.1049C11.1214 19.5851 11.1214 16.9455 11.7608 14.4257C11.9464 13.6943 12.3312 13.0287 12.8723 12.5028C13.4134 11.9769 14.0898 11.6113 14.8262 11.4467L15.0946 11.3873ZM22.4863 12.5455C20.1377 12.0205 17.7021 12.0205 15.3534 12.5455L15.0843 12.6057C14.5623 12.7226 14.083 12.9819 13.6995 13.3547C13.3161 13.7276 13.0434 14.1994 12.9119 14.7179C12.3211 17.0459 12.3211 19.4847 12.9119 21.8128C13.0435 22.3313 13.3162 22.8032 13.6999 23.1761C14.0835 23.549 14.563 23.8082 15.0851 23.925L15.1563 23.9408C15.2716 23.9666 15.3765 24.0261 15.4578 24.1119C15.539 24.1976 15.5928 24.3056 15.6123 24.4221L15.8451 25.8139L17.3271 24.4878C17.3862 24.4347 17.4555 24.394 17.5307 24.3682C17.6059 24.3424 17.6855 24.3319 17.7648 24.3374C19.3474 24.4497 20.9379 24.331 22.4863 23.9851L22.7547 23.925C23.2768 23.8082 23.7563 23.549 24.1399 23.1761C24.5235 22.8032 24.7963 22.3313 24.9278 21.8128C25.5184 19.4853 25.5184 17.0462 24.9278 14.7179C24.7963 14.1993 24.5235 13.7274 24.1399 13.3545C23.7563 12.9817 23.2768 12.7225 22.7547 12.6057L22.4863 12.5455Z" fill="white"/>
</svg>
