<svg width="38" height="38" viewBox="0 0 38 38" fill="none" xmlns="http://www.w3.org/2000/svg">
<circle cx="19" cy="19" r="19" fill="#A80D0F"/>
<path d="M18.1715 19L22.3015 14.87C22.5188 14.6514 22.6407 14.3557 22.6407 14.0475C22.6407 13.7393 22.5188 13.4436 22.3015 13.225C22.193 13.1156 22.064 13.0288 21.9218 12.9696C21.7796 12.9104 21.6271 12.8799 21.4731 12.8799C21.3191 12.8799 21.1666 12.9104 21.0245 12.9696C20.8823 13.0288 20.7532 13.1156 20.6448 13.225L15.6981 18.1716C15.5888 18.2801 15.502 18.4091 15.4428 18.5513C15.3835 18.6935 15.353 18.846 15.353 19C15.353 19.154 15.3835 19.3065 15.4428 19.4487C15.502 19.5908 15.5888 19.7199 15.6981 19.8283L20.6448 24.8333C20.7538 24.9414 20.8831 25.027 21.0252 25.085C21.1674 25.1431 21.3196 25.1725 21.4731 25.1716C21.6267 25.1725 21.7789 25.1431 21.921 25.085C22.0632 25.027 22.1924 24.9414 22.3015 24.8333C22.5188 24.6147 22.6407 24.319 22.6407 24.0108C22.6407 23.7026 22.5188 23.4069 22.3015 23.1883L18.1715 19Z" fill="white"/>
</svg>
