<?xml version="1.0" encoding="utf-8"?><svg viewBox="0 0 19 17" xmlns="http://www.w3.org/2000/svg" xmlns:xlink="http://www.w3.org/1999/xlink"><style>:root>svg{display:none}:root>svg:target{display:block}</style><svg viewBox="0 0 19 16" id="Arrow" xmlns="http://www.w3.org/2000/svg"><path d="M18.707 8.707a1 1 0 000-1.414L12.343.929a1 1 0 10-1.414 1.414L16.586 8l-5.657 5.657a1 1 0 001.414 1.414l6.364-6.364zM0 9h18V7H0v2z"/></svg><svg viewBox="0 0 18 17" id="stars" xmlns="http://www.w3.org/2000/svg"><path d="M6.182 5.505l-4.785.694-.084.017a.75.75 0 00-.33 1.263l3.466 3.374-.817 4.766-.01.083a.75.75 0 001.098.708L9 14.16l4.269 2.25.075.034a.75.75 0 001.014-.825l-.818-4.766 3.468-3.375.058-.064a.75.75 0 00-.474-1.215l-4.785-.694-2.14-4.335a.75.75 0 00-1.345 0l-2.14 4.335z"/></svg></svg>