<svg width="38" height="38" viewBox="0 0 38 38" fill="none" xmlns="http://www.w3.org/2000/svg">
<circle cx="19" cy="19" r="19" fill="#A80D0F"/>
<path d="M21.433 11.0833H16.5761C12.138 11.0833 11.0835 12.1386 11.0835 16.5672V21.4249C11.0835 25.8614 12.1309 26.9167 16.5674 26.9167H21.425C25.8615 26.9167 26.9168 25.8693 26.9168 21.4328V16.5759C26.9168 12.1378 25.8695 11.0833 21.433 11.0833ZM23.8658 22.3804H22.7107C22.2737 22.3804 22.1423 22.0265 21.3585 21.2428C20.6745 20.5833 20.3856 20.501 20.2122 20.501C19.9731 20.501 19.9074 20.5667 19.9074 20.8968V21.9355C19.9074 22.2165 19.8164 22.3812 19.0825 22.3812C18.3703 22.3333 17.6796 22.117 17.0674 21.7499C16.4552 21.3828 15.9389 20.8755 15.5612 20.2698C14.6643 19.1536 14.0403 17.8435 13.7387 16.4437C13.7387 16.2703 13.8045 16.1136 14.1346 16.1136H15.2896C15.5865 16.1136 15.6934 16.2458 15.809 16.5506C16.3695 18.2004 17.3258 19.6349 17.7137 19.6349C17.8625 19.6349 17.9275 19.5692 17.9275 19.1979V17.499C17.8784 16.724 17.4667 16.6582 17.4667 16.378C17.472 16.3041 17.5059 16.2351 17.5611 16.1858C17.6164 16.1364 17.6887 16.1105 17.7628 16.1136H19.5773C19.8251 16.1136 19.9074 16.2371 19.9074 16.534V18.8266C19.9074 19.0744 20.0143 19.1567 20.0887 19.1567C20.2375 19.1567 20.3523 19.0744 20.6247 18.8021C21.2096 18.0887 21.6875 17.294 22.0433 16.4429C22.0797 16.3407 22.1485 16.2532 22.2393 16.1937C22.3301 16.1342 22.4378 16.1061 22.546 16.1136H23.7011C24.047 16.1136 24.1207 16.287 24.047 16.534C23.6271 17.4748 23.1074 18.3679 22.497 19.1979C22.3727 19.3879 22.3228 19.4869 22.497 19.7093C22.6117 19.8827 23.0163 20.2207 23.2886 20.5422C23.6844 20.9369 24.013 21.3937 24.2616 21.8943C24.3605 22.2157 24.1951 22.3804 23.8658 22.3804Z" fill="white"/>
</svg>
