<svg width="38" height="38" viewBox="0 0 38 38" fill="none" xmlns="http://www.w3.org/2000/svg">
<circle cx="19" cy="19" r="19" fill="#A80D0F"/>
<g clip-path="url(#clip0_11_647)">
<path fill-rule="evenodd" clip-rule="evenodd" d="M24.53 22.915C24.301 23.5631 23.3909 24.0993 22.6651 24.2561C22.1683 24.3616 21.5203 24.445 19.3372 23.5403C16.8853 22.5245 13.4805 18.9059 13.4805 16.4979C13.4805 15.272 14.1873 13.8446 15.4233 13.8446C16.018 13.8446 16.1491 13.8562 16.3448 14.3256C16.5737 14.8787 17.1323 16.2413 17.1988 16.381C17.4734 16.954 16.9195 17.2895 16.5176 17.7884C16.3894 17.9385 16.2441 18.1009 16.4065 18.3803C16.568 18.654 17.1266 19.5643 17.9474 20.2951C19.0076 21.2397 19.8673 21.5413 20.1751 21.6696C20.4041 21.7646 20.6777 21.7425 20.8449 21.5638C21.0568 21.3348 21.3199 20.9548 21.5878 20.5804C21.7768 20.3124 22.0172 20.2789 22.269 20.374C22.439 20.4329 24.6002 21.4366 24.6914 21.5972C24.7589 21.7141 24.7589 22.2669 24.53 22.915ZM19.0019 9.5H18.9971C13.7598 9.5 9.5 13.7611 9.5 19C9.5 21.0773 10.1698 23.0046 11.3088 24.5678L10.1251 28.0978L13.776 26.9312C15.2779 27.9252 17.0705 28.5 19.0019 28.5C24.2392 28.5 28.5 24.2389 28.5 19C28.5 13.7611 24.2392 9.5 19.0019 9.5Z" fill="white"/>
</g>
<defs>
<clipPath id="clip0_11_647">
<rect width="19" height="19" fill="white" transform="translate(9.5 9.5)"/>
</clipPath>
</defs>
</svg>
